Metropolis-Regular.ufo
<glyph name="numbersign" format="1">
  <advance width="689"/>
  <unicode hex="0023"/>
  <outline>
    <contour>
      <point x="115" y="0" type="line"/>
      <point x="181" y="0" type="line"/>
      <point x="354" y="687" type="line"/>
      <point x="288" y="687" type="line"/>
    </contour>
    <contour>
      <point x="331" y="0" type="line"/>
      <point x="397" y="0" type="line"/>
      <point x="570" y="687" type="line"/>
      <point x="504" y="687" type="line"/>
    </contour>
    <contour>
      <point x="47" y="179" type="line"/>
      <point x="560" y="179" type="line"/>
      <point x="575" y="240" type="line"/>
      <point x="62" y="240" type="line"/>
    </contour>
    <contour>
      <point x="113" y="446" type="line"/>
      <point x="627" y="446" type="line"/>
      <point x="642" y="507" type="line"/>
      <point x="128" y="507" type="line"/>
    </contour>
  </outline>
</glyph>
<glyph name="dollar" format="1">
  <advance width="658"/>
  <unicode hex="0024"/>
  <outline>
    <contour>
      <point x="299" y="-74" type="line"/>
      <point x="377" y="-74" type="line"/>
      <point x="377" y="759" type="line"/>
      <point x="299" y="759" type="line"/>
    </contour>
    <component base="S" xOffset="24"/>
  </outline>
</glyph>
<glyph name="quotesingle" format="1">
  <advance width="278"/>
  <unicode hex="0027"/>
  <outline>
    <contour>
      <point x="117" y="429" type="curve"/>
      <point x="161" y="429" type="line"/>
      <point x="169" y="487"/>
      <point x="185" y="579"/>
      <point x="185" y="629" type="curve" smooth="yes"/>
      <point x="185" y="654"/>
      <point x="164" y="675"/>
      <point x="139" y="675" type="curve" smooth="yes"/>
      <point x="114" y="675"/>
      <point x="93" y="654"/>
      <point x="93" y="629" type="curve" smooth="yes"/>
      <point x="93" y="579"/>
      <point x="109" y="487"/>
    </contour>
  </outline>
</glyph>
<glyph name="parenleft" format="1">
  <advance width="328"/>
  <unicode hex="0028"/>
  <outline>
    <contour>
      <point x="262" y="-170" type="curve"/>
      <point x="302" y="-127" type="line"/>
      <point x="193" y="-16"/>
      <point x="133" y="102"/>
      <point x="133" y="265" type="curve" smooth="yes"/>
      <point x="133" y="429"/>
      <point x="193" y="546"/>
      <point x="302" y="658" type="curve"/>
      <point x="262" y="700" type="line"/>
      <point x="128" y="588"/>
      <point x="53" y="438"/>
      <point x="53" y="265" type="curve" smooth="yes"/>
      <point x="53" y="93"/>
      <point x="128" y="-58"/>
    </contour>
  </outline>
</glyph>
<glyph name="plus" format="1">
  <advance width="591"/>
  <unicode hex="002B"/>
  <outline>
    <contour>
      <point x="66" y="297" type="line"/>
      <point x="525" y="297" type="line"/>
      <point x="525" y="371" type="line"/>
      <point x="66" y="371" type="line"/>
    </contour>
    <contour>
      <point x="258" y="105" type="line"/>
      <point x="333" y="105" type="line"/>
      <point x="333" y="564" type="line"/>
      <point x="258" y="564" type="line"/>
    </contour>
  </outline>
</glyph>
<glyph name="comma" format="1">
  <advance width="314"/>
  <unicode hex="002C"/>
  <outline>
    <contour>
      <point x="140" y="-133" type="line"/>
      <point x="200" y="-58"/>
      <point x="217" y="-24"/>
      <point x="217" y="16" type="curve" smooth="yes"/>
      <point x="217" y="62"/>
      <point x="194" y="96"/>
      <point x="156" y="96" type="curve" smooth="yes"/>
      <point x="124" y="96"/>
      <point x="101" y="71"/>
      <point x="101" y="43" type="curve" smooth="yes"/>
      <point x="101" y="13"/>
      <point x="125" y="-12"/>
      <point x="155" y="-12" type="curve"/>
      <point x="147" y="-43"/>
      <point x="130" y="-74"/>
      <point x="103" y="-105" type="curve"/>
    </contour>
  </outline>
</glyph>
<glyph name="two" format="1">
  <advance width="565"/>
  <unicode hex="0032"/>
  <outline>
    <contour>
      <point x="34" y="0" type="line"/>
      <point x="508" y="0" type="line"/>
      <point x="508" y="74" type="line"/>
      <point x="159" y="74" type="line"/>
      <point x="339" y="230" type="line" smooth="yes"/>
      <point x="455" y="330"/>
      <point x="501" y="404"/>
      <point x="501" y="497" type="curve" smooth="yes"/>
      <point x="501" y="620"/>
      <point x="401" y="699"/>
      <point x="282" y="699" type="curve" smooth="yes"/>
      <point x="174" y="699"/>
      <point x="97" y="648"/>
      <point x="40" y="567" type="curve"/>
      <point x="95" y="522" type="line"/>
      <point x="142" y="586"/>
      <point x="199" y="629"/>
      <point x="279" y="629" type="curve" smooth="yes"/>
      <point x="352" y="629"/>
      <point x="422" y="580"/>
      <point x="422" y="496" type="curve" smooth="yes"/>
      <point x="422" y="428"/>
      <point x="382" y="362"/>
      <point x="285" y="279" type="curve" smooth="yes"/>
      <point x="34" y="65" type="line"/>
    </contour>
  </outline>
</glyph>
<glyph name="three" format="1">
  <advance width="582"/>
  <unicode hex="0033"/>
  <outline>
    <contour>
      <point x="280" y="-12" type="curve" smooth="yes"/>
      <point x="423" y="-12"/>
      <point x="519" y="71"/>
      <point x="519" y="186" type="curve" smooth="yes"/>
      <point x="519" y="285"/>
      <point x="441" y="336"/>
      <point x="371" y="352" type="curve"/>
      <point x="442" y="373"/>
      <point x="504" y="425"/>
      <point x="504" y="513" type="curve" smooth="yes"/>
      <point x="504" y="623"/>
      <point x="408" y="699"/>
      <point x="277" y="699" type="curve" smooth="yes"/>
      <point x="170" y="699"/>
      <point x="94" y="647"/>
      <point x="42" y="578" type="curve"/>
      <point x="94" y="531" type="line"/>
      <point x="143" y="590"/>
      <point x="197" y="628"/>
      <point x="273" y="628" type="curve" smooth="yes"/>
      <point x="359" y="628"/>
      <point x="425" y="576"/>
      <point x="425" y="504" type="curve" smooth="yes"/>
      <point x="425" y="426"/>
      <point x="356" y="382"/>
      <point x="264" y="383" type="curve" smooth="yes"/>
      <point x="190" y="384" type="line"/>
      <point x="190" y="312" type="line"/>
      <point x="263" y="312" type="line" smooth="yes"/>
      <point x="371" y="312"/>
      <point x="440" y="271"/>
      <point x="440" y="190" type="curve" smooth="yes"/>
      <point x="440" y="112"/>
      <point x="376" y="59"/>
      <point x="280" y="59" type="curve" smooth="yes"/>
      <point x="196" y="59"/>
      <point x="129" y="99"/>
      <point x="84" y="157" type="curve"/>
      <point x="30" y="106" type="line"/>
      <point x="80" y="40"/>
      <point x="167" y="-12"/>
    </contour>
  </outline>
</glyph>
<glyph name="five" format="1">
  <advance width="593"/>
  <unicode hex="0035"/>
  <outline>
    <contour>
      <point x="297" y="-12" type="curve" smooth="yes"/>
      <point x="438" y="-12"/>
      <point x="541" y="78"/>
      <point x="541" y="214" type="curve" smooth="yes"/>
      <point x="541" y="350"/>
      <point x="438" y="428"/>
      <point x="314" y="428" type="curve" smooth="yes"/>
      <point x="251" y="428"/>
      <point x="204" y="407"/>
      <point x="167" y="382" type="curve"/>
      <point x="174" y="613" type="line"/>
      <point x="504" y="613" type="line"/>
      <point x="504" y="687" type="line"/>
      <point x="98" y="687" type="line"/>
      <point x="88" y="334" type="line"/>
      <point x="145" y="306" type="line"/>
      <point x="188" y="338"/>
      <point x="239" y="359"/>
      <point x="298" y="359" type="curve" smooth="yes"/>
      <point x="394" y="359"/>
      <point x="462" y="299"/>
      <point x="462" y="211" type="curve" smooth="yes"/>
      <point x="462" y="124"/>
      <point x="395" y="58"/>
      <point x="300" y="58" type="curve" smooth="yes"/>
      <point x="224" y="58"/>
      <point x="159" y="96"/>
      <point x="106" y="154" type="curve"/>
      <point x="55" y="97" type="line"/>
      <point x="111" y="33"/>
      <point x="191" y="-12"/>
    </contour>
  </outline>
</glyph>
<glyph name="seven" format="1">
  <advance width="515"/>
  <unicode hex="0037"/>
  <outline>
    <contour>
      <point x="101" y="0" type="line"/>
      <point x="191" y="0" type="line"/>
      <point x="487" y="628" type="line"/>
      <point x="487" y="687" type="line"/>
      <point x="22" y="687" type="line"/>
      <point x="22" y="613" type="line"/>
      <point x="394" y="613" type="line"/>
    </contour>
  </outline>
</glyph>
<glyph name="eight" format="1">
  <advance width="621"/>
  <unicode hex="0038"/>
  <outline>
    <contour>
      <point x="310" y="-12" type="curve" smooth="yes"/>
      <point x="451" y="-12"/>
      <point x="561" y="63"/>
      <point x="561" y="180" type="curve" smooth="yes"/>
      <point x="561" y="266"/>
      <point x="493" y="327"/>
      <point x="410" y="355" type="curve"/>
      <point x="481" y="381"/>
      <point x="544" y="432"/>
      <point x="544" y="516" type="curve" smooth="yes"/>
      <point x="544" y="629"/>
      <point x="433" y="699"/>
      <point x="310" y="699" type="curve" smooth="yes"/>
      <point x="191" y="699"/>
      <point x="77" y="631"/>
      <point x="77" y="517" type="curve" smooth="yes"/>
      <point x="77" y="438"/>
      <point x="133" y="385"/>
      <point x="211" y="355" type="curve"/>
      <point x="127" y="328"/>
      <point x="59" y="266"/>
      <point x="59" y="180" type="curve" smooth="yes"/>
      <point x="59" y="64"/>
      <point x="168" y="-12"/>
    </contour>
    <contour>
      <point x="310" y="59" type="curve" smooth="yes"/>
      <point x="215" y="59"/>
      <point x="138" y="110"/>
      <point x="138" y="185" type="curve" smooth="yes"/>
      <point x="138" y="268"/>
      <point x="239" y="316"/>
      <point x="310" y="318" type="curve"/>
      <point x="382" y="316"/>
      <point x="482" y="268"/>
      <point x="482" y="185" type="curve" smooth="yes"/>
      <point x="482" y="110"/>
      <point x="405" y="59"/>
    </contour>
    <contour>
      <point x="310" y="386" type="curve"/>
      <point x="245" y="390"/>
      <point x="156" y="429"/>
      <point x="156" y="509" type="curve" smooth="yes"/>
      <point x="156" y="578"/>
      <point x="224" y="628"/>
      <point x="310" y="628" type="curve" smooth="yes"/>
      <point x="396" y="628"/>
      <point x="465" y="578"/>
      <point x="465" y="509" type="curve" smooth="yes"/>
      <point x="465" y="431"/>
      <point x="377" y="390"/>
    </contour>
  </outline>
</glyph>
<glyph name="colon" format="1">
  <advance width="307"/>
  <unicode hex="003A"/>
  <outline>
    <contour>
      <point x="154" y="403" type="curve" smooth="yes"/>
      <point x="183" y="403"/>
      <point x="207" y="428"/>
      <point x="207" y="458" type="curve" smooth="yes"/>
      <point x="207" y="486"/>
      <point x="183" y="511"/>
      <point x="154" y="511" type="curve" smooth="yes"/>
      <point x="123" y="511"/>
      <point x="99" y="486"/>
      <point x="99" y="458" type="curve" smooth="yes"/>
      <point x="99" y="428"/>
      <point x="123" y="403"/>
    </contour>
    <contour>
      <point x="154" y="-12" type="curve" smooth="yes"/>
      <point x="183" y="-12"/>
      <point x="207" y="13"/>
      <point x="207" y="43" type="curve" smooth="yes"/>
      <point x="207" y="71"/>
      <point x="183" y="96"/>
      <point x="154" y="96" type="curve" smooth="yes"/>
      <point x="123" y="96"/>
      <point x="99" y="71"/>
      <point x="99" y="43" type="curve" smooth="yes"/>
      <point x="99" y="13"/>
      <point x="123" y="-12"/>
    </contour>
  </outline>
</glyph>
<glyph name="less" format="1">
  <advance width="593"/>
  <unicode hex="003C"/>
  <outline>
    <contour>
      <point x="514" y="88" type="line"/>
      <point x="514" y="159" type="line"/>
      <point x="133" y="344" type="line"/>
      <point x="514" y="529" type="line"/>
      <point x="514" y="599" type="line"/>
      <point x="59" y="373" type="line"/>
      <point x="59" y="314" type="line"/>
    </contour>
  </outline>
</glyph>
<glyph name="greater" format="1">
  <advance width="593"/>
  <unicode hex="003E"/>
  <outline>
    <contour>
      <point x="79" y="88" type="line"/>
      <point x="534" y="314" type="line"/>
      <point x="534" y="373" type="line"/>
      <point x="79" y="599" type="line"/>
      <point x="79" y="529" type="line"/>
      <point x="460" y="344" type="line"/>
      <point x="79" y="159" type="line"/>
    </contour>
  </outline>
</glyph>
<glyph name="at" format="1">
  <advance width="936"/>
  <unicode hex="0040"/>
  <outline>
    <contour>
      <point x="455" y="-116" type="curve" smooth="yes"/>
      <point x="546" y="-116"/>
      <point x="614" y="-96"/>
      <point x="691" y="-47" type="curve"/>
      <point x="673" y="-20" type="line"/>
      <point x="600" y="-64"/>
      <point x="539" y="-81"/>
      <point x="457" y="-81" type="curve" smooth="yes"/>
      <point x="269" y="-81"/>
      <point x="111" y="75"/>
      <point x="111" y="260" type="curve" smooth="yes"/>
      <point x="111" y="466"/>
      <point x="284" y="639"/>
      <point x="489" y="639" type="curve" smooth="yes"/>
      <point x="674" y="639"/>
      <point x="830" y="493"/>
      <point x="830" y="319" type="curve" smooth="yes"/>
      <point x="830" y="179"/>
      <point x="761" y="125"/>
      <point x="706" y="125" type="curve" smooth="yes"/>
      <point x="666" y="125"/>
      <point x="640" y="149"/>
      <point x="640" y="191" type="curve" smooth="yes"/>
      <point x="640" y="216"/>
      <point x="662" y="322"/>
      <point x="693" y="481" type="curve"/>
      <point x="626" y="486" type="line"/>
      <point x="613" y="420" type="line"/>
      <point x="591" y="463"/>
      <point x="547" y="501"/>
      <point x="476" y="501" type="curve" smooth="yes"/>
      <point x="360" y="501"/>
      <point x="243" y="391"/>
      <point x="243" y="251" type="curve" smooth="yes"/>
      <point x="243" y="147"/>
      <point x="313" y="78"/>
      <point x="409" y="78" type="curve" smooth="yes"/>
      <point x="478" y="78"/>
      <point x="534" y="116"/>
      <point x="571" y="164" type="curve"/>
      <point x="582" y="111"/>
      <point x="624" y="78"/>
      <point x="686" y="78" type="curve" smooth="yes"/>
      <point x="774" y="78"/>
      <point x="866" y="156"/>
      <point x="866" y="319" type="curve" smooth="yes"/>
      <point x="866" y="512"/>
      <point x="695" y="675"/>
      <point x="491" y="675" type="curve" smooth="yes"/>
      <point x="264" y="675"/>
      <point x="73" y="485"/>
      <point x="73" y="259" type="curve" smooth="yes"/>
      <point x="73" y="55"/>
      <point x="248" y="-116"/>
    </contour>
    <contour>
      <point x="427" y="137" type="curve" smooth="yes"/>
      <point x="359" y="137"/>
      <point x="315" y="184"/>
      <point x="315" y="255" type="curve" smooth="yes"/>
      <point x="315" y="355"/>
      <point x="393" y="442"/>
      <point x="485" y="442" type="curve" smooth="yes"/>
      <point x="564" y="442"/>
      <point x="599" y="391"/>
      <point x="591" y="311" type="curve" smooth="yes"/>
      <point x="581" y="214"/>
      <point x="521" y="137"/>
    </contour>
  </outline>
</glyph>
<glyph name="A" format="1">
  <advance width="741"/>
  <unicode hex="0041"/>
  <outline>
    <contour>
      <point x="161" y="156" type="line"/>
      <point x="580" y="156" type="line"/>
      <point x="580" y="230" type="line"/>
      <point x="161" y="230" type="line"/>
    </contour>
    <component base="capital_V" xScale="-1" yScale="-1" xOffset="741" yOffset="687"/>
    <contour>
      <point x="716" y="0" type="move" name="bottom"/>
    </contour>
    <contour>
      <point x="371" y="687" type="move" name="top"/>
    </contour>
  </outline>
</glyph>
<glyph name="D" format="1">
  <advance width="769"/>
  <unicode hex="0044"/>
  <outline>
    <contour>
      <point x="109" y="0" type="line"/>
      <point x="341" y="0" type="line" smooth="yes"/>
      <point x="559" y="0"/>
      <point x="713" y="143"/>
      <point x="713" y="344" type="curve" smooth="yes"/>
      <point x="713" y="545"/>
      <point x="559" y="687"/>
      <point x="341" y="687" type="curve" smooth="yes"/>
      <point x="109" y="687" type="line"/>
    </contour>
    <contour>
      <point x="187" y="71" type="line"/>
      <point x="187" y="616" type="line"/>
      <point x="341" y="616" type="line" smooth="yes"/>
      <point x="513" y="616"/>
      <point x="634" y="503"/>
      <point x="634" y="344" type="curve" smooth="yes"/>
      <point x="634" y="184"/>
      <point x="513" y="71"/>
      <point x="341" y="71" type="curve" smooth="yes"/>
    </contour>
    <contour>
      <point x="341" y="687" type="move" name="top"/>
    </contour>
  </outline>
</glyph>
<glyph name="E" format="1">
  <advance width="658"/>
  <unicode hex="0045"/>
  <outline>
    <contour>
      <point x="109" y="0" type="line"/>
      <point x="602" y="0" type="line"/>
      <point x="602" y="74" type="line"/>
      <point x="168" y="74" type="line"/>
      <point x="188" y="54" type="line"/>
      <point x="188" y="333" type="line"/>
      <point x="168" y="313" type="line"/>
      <point x="561" y="313" type="line"/>
      <point x="561" y="387" type="line"/>
      <point x="168" y="387" type="line"/>
      <point x="188" y="367" type="line"/>
      <point x="188" y="633" type="line"/>
      <point x="168" y="613" type="line"/>
      <point x="602" y="613" type="line"/>
      <point x="602" y="687" type="line"/>
      <point x="109" y="687" type="line"/>
    </contour>
    <contour>
      <point x="109" y="687" type="move" name="ae_upper"/>
    </contour>
    <contour>
      <point x="602" y="0" type="move" name="bottom"/>
    </contour>
    <contour>
      <point x="356" y="687" type="move" name="top"/>
    </contour>
  </outline>
</glyph>
<glyph name="F" format="1">
  <advance width="639"/>
  <unicode hex="0046"/>
  <outline>
    <contour>
      <point x="109" y="0" type="line"/>
      <point x="188" y="0" type="line"/>
      <point x="188" y="333" type="line"/>
      <point x="168" y="313" type="line"/>
      <point x="561" y="313" type="line"/>
      <point x="561" y="387" type="line"/>
      <point x="168" y="387" type="line"/>
      <point x="188" y="367" type="line"/>
      <point x="188" y="633" type="line"/>
      <point x="168" y="613" type="line"/>
      <point x="602" y="613" type="line"/>
      <point x="602" y="687" type="line"/>
      <point x="109" y="687" type="line"/>
    </contour>
  </outline>
</glyph>
<glyph name="G" format="1">
  <advance width="750"/>
  <unicode hex="0047"/>
  <outline>
    <contour>
      <point x="408" y="-12" type="curve" smooth="yes"/>
      <point x="503" y="-12"/>
      <point x="611" y="29"/>
      <point x="675" y="93" type="curve"/>
      <point x="622" y="147" type="line"/>
      <point x="572" y="94"/>
      <point x="483" y="60"/>
      <point x="408" y="60" type="curve" smooth="yes"/>
      <point x="260" y="60"/>
      <point x="135" y="190"/>
      <point x="135" y="344" type="curve" smooth="yes"/>
      <point x="135" y="497"/>
      <point x="260" y="627"/>
      <point x="408" y="627" type="curve" smooth="yes"/>
      <point x="483" y="627"/>
      <point x="572" y="593"/>
      <point x="622" y="540" type="curve"/>
      <point x="675" y="594" type="line"/>
      <point x="611" y="659"/>
      <point x="503" y="699"/>
      <point x="408" y="699" type="curve" smooth="yes"/>
      <point x="218" y="699"/>
      <point x="56" y="537"/>
      <point x="56" y="344" type="curve" smooth="yes"/>
      <point x="56" y="151"/>
      <point x="218" y="-12"/>
    </contour>
    <contour>
      <point x="597" y="93" type="line"/>
      <point x="675" y="93" type="line"/>
      <point x="675" y="362" type="line"/>
      <point x="400" y="362" type="line"/>
      <point x="400" y="288" type="line"/>
      <point x="629" y="288" type="line"/>
      <point x="597" y="329" type="line"/>
    </contour>
    <contour>
      <point x="408" y="0" type="move" name="bottom"/>
    </contour>
    <contour>
      <point x="408" y="687" type="move" name="top"/>
    </contour>
  </outline>
</glyph>
<glyph name="H" format="1">
  <advance width="779"/>
  <unicode hex="0048"/>
  <outline>
    <contour>
      <point x="109" y="0" type="line"/>
      <point x="187" y="0" type="line"/>
      <point x="187" y="335" type="line"/>
      <point x="165" y="313" type="line"/>
      <point x="613" y="313" type="line"/>
      <point x="592" y="335" type="line"/>
      <point x="592" y="0" type="line"/>
      <point x="670" y="0" type="line"/>
      <point x="670" y="687" type="line"/>
      <point x="592" y="687" type="line"/>
      <point x="592" y="365" type="line"/>
      <point x="614" y="387" type="line"/>
      <point x="165" y="387" type="line"/>
      <point x="187" y="365" type="line"/>
      <point x="187" y="687" type="line"/>
      <point x="109" y="687" type="line"/>
    </contour>
  </outline>
</glyph>
<glyph name="K" format="1">
  <advance width="680"/>
  <unicode hex="004B"/>
  <outline>
    <contour>
      <point x="109" y="0" type="line"/>
      <point x="187" y="0" type="line"/>
      <point x="187" y="206" type="line"/>
      <point x="295" y="320" type="line"/>
      <point x="556" y="0" type="line"/>
      <point x="657" y="0" type="line"/>
      <point x="349" y="373" type="line"/>
      <point x="638" y="687" type="line"/>
      <point x="535" y="687" type="line"/>
      <point x="187" y="307" type="line"/>
      <point x="187" y="687" type="line"/>
      <point x="109" y="687" type="line"/>
    </contour>
    <contour>
      <point x="383" y="0" type="move" name="bottom"/>
    </contour>
  </outline>
</glyph>
<glyph name="L" format="1">
  <advance width="587"/>
  <unicode hex="004C"/>
  <outline>
    <contour>
      <point x="109" y="0" type="line"/>
      <point x="562" y="0" type="line"/>
      <point x="562" y="74" type="line"/>
      <point x="164" y="74" type="line"/>
      <point x="187" y="50" type="line"/>
      <point x="187" y="687" type="line"/>
      <point x="109" y="687" type="line"/>
    </contour>
    <contour>
      <point x="151" y="687" type="move" name="top"/>
    </contour>
  </outline>
</glyph>
<glyph name="S" format="1">
  <advance width="612"/>
  <unicode hex="0053"/>
  <outline>
    <contour>
      <point x="317" y="-11" type="curve" smooth="yes"/>
      <point x="477" y="-11"/>
      <point x="559" y="78"/>
      <point x="559" y="187" type="curve" smooth="yes"/>
      <point x="559" y="308"/>
      <point x="465" y="355"/>
      <point x="334" y="386" type="curve" smooth="yes"/>
      <point x="217" y="414"/>
      <point x="149" y="439"/>
      <point x="149" y="510" type="curve" smooth="yes"/>
      <point x="149" y="573"/>
      <point x="211" y="628"/>
      <point x="296" y="628" type="curve" smooth="yes"/>
      <point x="368" y="628"/>
      <point x="436" y="595"/>
      <point x="493" y="540" type="curve"/>
      <point x="541" y="601" type="line"/>
      <point x="478" y="659"/>
      <point x="402" y="699"/>
      <point x="300" y="699" type="curve" smooth="yes"/>
      <point x="168" y="699"/>
      <point x="70" y="614"/>
      <point x="70" y="504" type="curve" smooth="yes"/>
      <point x="70" y="385"/>
      <point x="157" y="342"/>
      <point x="295" y="310" type="curve" smooth="yes"/>
      <point x="415" y="282"/>
      <point x="480" y="253"/>
      <point x="480" y="180" type="curve" smooth="yes"/>
      <point x="480" y="118"/>
      <point x="426" y="60"/>
      <point x="320" y="60" type="curve" smooth="yes"/>
      <point x="224" y="60"/>
      <point x="153" y="101"/>
      <point x="95" y="159" type="curve"/>
      <point x="46" y="98" type="line"/>
      <point x="115" y="30"/>
      <point x="204" y="-11"/>
    </contour>
    <contour>
      <point x="308" y="0" type="move" name="bottom"/>
    </contour>
    <contour>
      <point x="307" y="687" type="move" name="top"/>
    </contour>
  </outline>
</glyph>
<glyph name="X" format="1">
  <advance width="677"/>
  <unicode hex="0058"/>
  <outline>
    <contour>
      <point x="553" y="0" type="line"/>
      <point x="28" y="687" type="line"/>
      <point x="124" y="687" type="line"/>
      <point x="649" y="0" type="line"/>
    </contour>
    <contour>
      <point x="28" y="0" type="line"/>
      <point x="554" y="687" type="line"/>
      <point x="649" y="687" type="line"/>
      <point x="123" y="0" type="line"/>
    </contour>
  </outline>
</glyph>
<glyph name="Z" format="1">
  <advance width="613"/>
  <unicode hex="005A"/>
  <outline>
    <contour>
      <point x="44" y="0" type="line"/>
      <point x="569" y="0" type="line"/>
      <point x="569" y="74" type="line"/>
      <point x="150" y="74" type="line"/>
      <point x="565" y="625" type="line"/>
      <point x="565" y="687" type="line"/>
      <point x="51" y="687" type="line"/>
      <point x="51" y="613" type="line"/>
      <point x="458" y="613" type="line"/>
      <point x="44" y="62" type="line"/>
    </contour>
    <contour>
      <point x="308" y="687" type="move" name="top"/>
    </contour>
  </outline>
</glyph>
<glyph name="backslash" format="1">
  <advance width="436"/>
  <unicode hex="005C"/>
  <outline>
    <contour>
      <point x="351" y="-74" type="line"/>
      <point x="436" y="-74" type="line"/>
      <point x="85" y="743" type="line"/>
      <point x="0" y="743" type="line"/>
    </contour>
  </outline>
</glyph>
<glyph name="asciicircum" format="1">
  <advance width="508"/>
  <unicode hex="005E"/>
  <outline>
    <contour>
      <point x="63" y="413" type="line"/>
      <point x="127" y="413" type="line"/>
      <point x="254" y="632" type="line"/>
      <point x="380" y="413" type="line"/>
      <point x="445" y="413" type="line"/>
      <point x="284" y="687" type="line"/>
      <point x="225" y="687" type="line"/>
    </contour>
  </outline>
</glyph>
<glyph name="grave" format="1">
  <advance width="259"/>
  <unicode hex="0060"/>
  <outline>
    <contour>
      <point x="171" y="576" type="line"/>
      <point x="229" y="576" type="line"/>
      <point x="108" y="720" type="line"/>
      <point x="29" y="702" type="line"/>
    </contour>
    <contour>
      <point x="200" y="517" type="move" name="_top"/>
    </contour>
    <contour>
      <point x="200" y="704" type="move" name="top"/>
    </contour>
  </outline>
</glyph>
<glyph name="a" format="1">
  <advance width="557"/>
  <unicode hex="0061"/>
  <outline>
    <contour>
      <point x="407" y="0" type="line"/>
      <point x="482" y="0" type="line"/>
      <point x="482" y="315" type="line" smooth="yes"/>
      <point x="482" y="440"/>
      <point x="413" y="529"/>
      <point x="272" y="529" type="curve" smooth="yes"/>
      <point x="222" y="529"/>
      <point x="160" y="516"/>
      <point x="86" y="479" type="curve"/>
      <point x="116" y="418" type="line"/>
      <point x="163" y="442"/>
      <point x="215" y="465"/>
      <point x="267" y="465" type="curve" smooth="yes"/>
      <point x="379" y="465"/>
      <point x="407" y="385"/>
      <point x="407" y="315" type="curve" smooth="yes"/>
    </contour>
    <contour>
      <point x="225" y="-12" type="curve" smooth="yes"/>
      <point x="307" y="-12"/>
      <point x="403" y="35"/>
      <point x="424" y="123" type="curve"/>
      <point x="407" y="162" type="line"/>
      <point x="387" y="89"/>
      <point x="306" y="54"/>
      <point x="238" y="54" type="curve" smooth="yes"/>
      <point x="165" y="54"/>
      <point x="109" y="92"/>
      <point x="109" y="156" type="curve" smooth="yes"/>
      <point x="109" y="218"/>
      <point x="174" y="262"/>
      <point x="251" y="262" type="curve" smooth="yes"/>
      <point x="321" y="262"/>
      <point x="385" y="250"/>
      <point x="440" y="230" type="curve"/>
      <point x="440" y="284" type="line"/>
      <point x="379" y="308"/>
      <point x="307" y="325"/>
      <point x="239" y="325" type="curve" smooth="yes"/>
      <point x="128" y="325"/>
      <point x="36" y="256"/>
      <point x="36" y="153" type="curve" smooth="yes"/>
      <point x="36" y="51"/>
      <point x="116" y="-12"/>
    </contour>
    <contour>
      <point x="482" y="0" type="move" name="bottom"/>
    </contour>
    <contour>
      <point x="272" y="517" type="move" name="top"/>
    </contour>
  </outline>
</glyph>
<glyph name="c" format="1">
  <advance width="519"/>
  <unicode hex="0063"/>
  <outline>
    <contour>
      <point x="309" y="-12" type="curve" smooth="yes"/>
      <point x="381" y="-12"/>
      <point x="447" y="18"/>
      <point x="496" y="67" type="curve"/>
      <point x="444" y="118" type="line"/>
      <point x="409" y="79"/>
      <point x="361" y="55"/>
      <point x="309" y="55" type="curve" smooth="yes"/>
      <point x="206" y="55"/>
      <point x="120" y="148"/>
      <point x="120" y="259" type="curve" smooth="yes"/>
      <point x="120" y="369"/>
      <point x="206" y="462"/>
      <point x="309" y="462" type="curve" smooth="yes"/>
      <point x="360" y="462"/>
      <point x="407" y="439"/>
      <point x="441" y="402" type="curve"/>
      <point x="493" y="453" type="line"/>
      <point x="444" y="500"/>
      <point x="379" y="529"/>
      <point x="309" y="529" type="curve" smooth="yes"/>
      <point x="164" y="529"/>
      <point x="41" y="406"/>
      <point x="41" y="259" type="curve" smooth="yes"/>
      <point x="41" y="112"/>
      <point x="164" y="-12"/>
    </contour>
    <contour>
      <point x="299" y="0" type="move" name="bottom"/>
    </contour>
    <contour>
      <point x="289" y="517" type="move" name="top"/>
    </contour>
  </outline>
</glyph>
<glyph name="f" format="1">
  <advance width="317"/>
  <unicode hex="0066"/>
  <outline>
    <contour>
      <point x="105" y="0" type="line"/>
      <point x="180" y="0" type="line"/>
      <point x="180" y="588" type="line" smooth="yes"/>
      <point x="180" y="626"/>
      <point x="206" y="653"/>
      <point x="236" y="653" type="curve" smooth="yes"/>
      <point x="259" y="653"/>
      <point x="279" y="644"/>
      <point x="290" y="632" type="curve"/>
      <point x="327" y="687" type="line"/>
      <point x="300" y="708"/>
      <point x="266" y="720"/>
      <point x="231" y="720" type="curve" smooth="yes"/>
      <point x="157" y="720"/>
      <point x="105" y="665"/>
      <point x="105" y="588" type="curve" smooth="yes"/>
    </contour>
    <contour>
      <point x="24" y="450" type="line"/>
      <point x="307" y="450" type="line"/>
      <point x="307" y="517" type="line"/>
      <point x="24" y="517" type="line"/>
    </contour>
  </outline>
</glyph>
<glyph name="g" format="1">
  <advance width="630"/>
  <unicode hex="0067"/>
  <outline>
    <contour>
      <point x="468" y="517" type="line"/>
      <point x="468" y="55" type="line" smooth="yes"/>
      <point x="468" y="-46"/>
      <point x="398" y="-105"/>
      <point x="279" y="-105" type="curve" smooth="yes"/>
      <point x="215" y="-105"/>
      <point x="153" y="-82"/>
      <point x="113" y="-44" type="curve"/>
      <point x="80" y="-103" type="line"/>
      <point x="127" y="-143"/>
      <point x="205" y="-172"/>
      <point x="289" y="-172" type="curve" smooth="yes"/>
      <point x="438" y="-172"/>
      <point x="543" y="-78"/>
      <point x="543" y="55" type="curve" smooth="yes"/>
      <point x="543" y="517" type="line"/>
    </contour>
    <contour>
      <point x="294" y="105" type="curve" smooth="yes"/>
      <point x="193" y="105"/>
      <point x="121" y="179"/>
      <point x="121" y="284" type="curve" smooth="yes"/>
      <point x="121" y="388"/>
      <point x="193" y="462"/>
      <point x="294" y="462" type="curve" smooth="yes"/>
      <point x="396" y="462"/>
      <point x="468" y="388"/>
      <point x="468" y="284" type="curve" smooth="yes"/>
      <point x="468" y="179"/>
      <point x="396" y="105"/>
    </contour>
    <contour>
      <point x="483" y="166" type="curve"/>
      <point x="483" y="401" type="line"/>
      <point x="445" y="480"/>
      <point x="373" y="529"/>
      <point x="280" y="529" type="curve" smooth="yes"/>
      <point x="141" y="529"/>
      <point x="42" y="428"/>
      <point x="42" y="284" type="curve" smooth="yes"/>
      <point x="42" y="140"/>
      <point x="141" y="38"/>
      <point x="280" y="38" type="curve" smooth="yes"/>
      <point x="373" y="38"/>
      <point x="445" y="87"/>
    </contour>
    <contour>
      <point x="289" y="-172" type="move" name="bottom"/>
    </contour>
    <contour>
      <point x="298" y="517" type="move" name="top"/>
    </contour>
  </outline>
</glyph>
<glyph name="s" format="1">
  <advance width="478"/>
  <unicode hex="0073"/>
  <outline>
    <contour>
      <point x="247" y="-12" type="curve" smooth="yes"/>
      <point x="354" y="-12"/>
      <point x="436" y="49"/>
      <point x="436" y="144" type="curve" smooth="yes"/>
      <point x="436" y="242"/>
      <point x="350" y="270"/>
      <point x="267" y="296" type="curve" smooth="yes"/>
      <point x="171" y="327"/>
      <point x="133" y="341"/>
      <point x="133" y="386" type="curve" smooth="yes"/>
      <point x="133" y="436"/>
      <point x="181" y="462"/>
      <point x="239" y="462" type="curve" smooth="yes"/>
      <point x="285" y="462"/>
      <point x="336" y="446"/>
      <point x="388" y="413" type="curve"/>
      <point x="424" y="471" type="line"/>
      <point x="369" y="507"/>
      <point x="303" y="529"/>
      <point x="239" y="529" type="curve" smooth="yes"/>
      <point x="136" y="529"/>
      <point x="58" y="471"/>
      <point x="58" y="377" type="curve" smooth="yes"/>
      <point x="58" y="303"/>
      <point x="106" y="266"/>
      <point x="231" y="230" type="curve" smooth="yes"/>
      <point x="301" y="210"/>
      <point x="361" y="192"/>
      <point x="361" y="136" type="curve" smooth="yes"/>
      <point x="361" y="87"/>
      <point x="315" y="55"/>
      <point x="247" y="55" type="curve" smooth="yes"/>
      <point x="190" y="55"/>
      <point x="131" y="77"/>
      <point x="72" y="120" type="curve"/>
      <point x="33" y="65" type="line"/>
      <point x="95" y="15"/>
      <point x="175" y="-12"/>
    </contour>
    <contour>
      <point x="236" y="0" type="move" name="bottom"/>
    </contour>
    <contour>
      <point x="239" y="517" type="move" name="top"/>
    </contour>
  </outline>
</glyph>
<glyph name="t" format="1">
  <advance width="345"/>
  <unicode hex="0074"/>
  <outline>
    <contour>
      <point x="228" y="-12" type="curve" smooth="yes"/>
      <point x="263" y="-12"/>
      <point x="297" y="0"/>
      <point x="324" y="21" type="curve"/>
      <point x="287" y="76" type="line"/>
      <point x="276" y="64"/>
      <point x="256" y="55"/>
      <point x="233" y="55" type="curve" smooth="yes"/>
      <point x="203" y="55"/>
      <point x="177" y="82"/>
      <point x="177" y="120" type="curve" smooth="yes"/>
      <point x="177" y="659" type="line"/>
      <point x="102" y="659" type="line"/>
      <point x="102" y="120" type="line" smooth="yes"/>
      <point x="102" y="43"/>
      <point x="154" y="-12"/>
    </contour>
    <contour>
      <point x="21" y="450" type="line"/>
      <point x="304" y="450" type="line"/>
      <point x="304" y="517" type="line"/>
      <point x="21" y="517" type="line"/>
    </contour>
    <contour>
      <point x="230" y="0" type="move" name="bottom"/>
    </contour>
  </outline>
</glyph>
<glyph name="v" format="1">
  <advance width="529"/>
  <unicode hex="0076"/>
  <outline>
    <contour>
      <point x="230" y="0" type="line"/>
      <point x="302" y="0" type="line"/>
      <point x="519" y="517" type="line"/>
      <point x="435" y="517" type="line"/>
      <point x="266" y="88" type="line"/>
      <point x="94" y="517" type="line"/>
      <point x="10" y="517" type="line"/>
    </contour>
  </outline>
</glyph>
<glyph name="y" format="1">
  <advance width="536"/>
  <unicode hex="0079"/>
  <outline>
    <contour>
      <point x="132" y="-180" type="curve" smooth="yes"/>
      <point x="203" y="-179"/>
      <point x="253" y="-146"/>
      <point x="289" y="-58" type="curve" smooth="yes"/>
      <point x="525" y="517" type="line"/>
      <point x="444" y="517" type="line"/>
      <point x="273" y="87" type="line"/>
      <point x="92" y="517" type="line"/>
      <point x="9" y="517" type="line"/>
      <point x="234" y="-2" type="line"/>
      <point x="204" y="-66" type="line"/>
      <point x="184" y="-101"/>
      <point x="162" y="-112"/>
      <point x="129" y="-112" type="curve" smooth="yes"/>
      <point x="107" y="-112"/>
      <point x="86" y="-108"/>
      <point x="68" y="-99" type="curve"/>
      <point x="50" y="-163" type="line"/>
      <point x="74" y="-174"/>
      <point x="102" y="-180"/>
    </contour>
    <contour>
      <point x="273" y="517" type="move" name="top"/>
    </contour>
  </outline>
</glyph>
<glyph name="braceright" format="1">
  <advance width="354"/>
  <unicode hex="007D"/>
  <outline>
    <contour>
      <point x="33" y="-166" type="line"/>
      <point x="188" y="-149"/>
      <point x="234" y="-100"/>
      <point x="234" y="3" type="curve" smooth="yes"/>
      <point x="234" y="144" type="line" smooth="yes"/>
      <point x="234" y="211"/>
      <point x="261" y="238"/>
      <point x="332" y="238" type="curve"/>
      <point x="332" y="293" type="line"/>
      <point x="260" y="293"/>
      <point x="234" y="322"/>
      <point x="234" y="388" type="curve" smooth="yes"/>
      <point x="234" y="528" type="line" smooth="yes"/>
      <point x="234" y="632"/>
      <point x="187" y="680"/>
      <point x="33" y="697" type="curve"/>
      <point x="27" y="644" type="line"/>
      <point x="146" y="626"/>
      <point x="169" y="603"/>
      <point x="169" y="524" type="curve" smooth="yes"/>
      <point x="168" y="380" type="line" smooth="yes"/>
      <point x="168" y="317"/>
      <point x="194" y="283"/>
      <point x="243" y="266" type="curve"/>
      <point x="193" y="248"/>
      <point x="168" y="214"/>
      <point x="168" y="151" type="curve" smooth="yes"/>
      <point x="169" y="8" type="line" smooth="yes"/>
      <point x="169" y="-73"/>
      <point x="144" y="-95"/>
      <point x="27" y="-113" type="curve"/>
    </contour>
  </outline>
</glyph>
<glyph name="sterling" format="1">
  <advance width="668"/>
  <unicode hex="00A3"/>
  <outline>
    <contour>
      <point x="85" y="0" type="line"/>
      <point x="603" y="0" type="line"/>
      <point x="603" y="74" type="line"/>
      <point x="205" y="74" type="line"/>
      <point x="228" y="50" type="line"/>
      <point x="228" y="463" type="line" smooth="yes"/>
      <point x="228" y="560"/>
      <point x="286" y="628"/>
      <point x="367" y="628" type="curve" smooth="yes"/>
      <point x="440" y="628"/>
      <point x="504" y="587"/>
      <point x="521" y="529" type="curve"/>
      <point x="578" y="585" type="line"/>
      <point x="546" y="652"/>
      <point x="459" y="699"/>
      <point x="367" y="699" type="curve" smooth="yes"/>
      <point x="240" y="699"/>
      <point x="150" y="601"/>
      <point x="150" y="463" type="curve" smooth="yes"/>
      <point x="150" y="74" type="line"/>
      <point x="85" y="38" type="line"/>
    </contour>
    <contour>
      <point x="88" y="261" type="line"/>
      <point x="430" y="261" type="line"/>
      <point x="430" y="328" type="line"/>
      <point x="88" y="328" type="line"/>
    </contour>
  </outline>
</glyph>
<glyph name="copyright" format="1">
  <advance width="941"/>
  <unicode hex="00A9"/>
  <outline>
    <contour>
      <point x="471" y="-116" type="curve" smooth="yes"/>
      <point x="689" y="-116"/>
      <point x="867" y="62"/>
      <point x="867" y="280" type="curve" smooth="yes"/>
      <point x="867" y="497"/>
      <point x="689" y="675"/>
      <point x="471" y="675" type="curve" smooth="yes"/>
      <point x="253" y="675"/>
      <point x="74" y="497"/>
      <point x="74" y="280" type="curve" smooth="yes"/>
      <point x="74" y="62"/>
      <point x="253" y="-116"/>
    </contour>
    <contour>
      <point x="471" y="-80" type="curve" smooth="yes"/>
      <point x="272" y="-80"/>
      <point x="110" y="82"/>
      <point x="110" y="280" type="curve" smooth="yes"/>
      <point x="110" y="477"/>
      <point x="272" y="639"/>
      <point x="471" y="639" type="curve" smooth="yes"/>
      <point x="669" y="639"/>
      <point x="831" y="477"/>
      <point x="831" y="280" type="curve" smooth="yes"/>
      <point x="831" y="82"/>
      <point x="669" y="-80"/>
    </contour>
    <contour>
      <point x="471" y="9" type="curve" smooth="yes"/>
      <point x="543" y="9"/>
      <point x="609" y="39"/>
      <point x="658" y="88" type="curve"/>
      <point x="606" y="139" type="line"/>
      <point x="571" y="100"/>
      <point x="523" y="76"/>
      <point x="471" y="76" type="curve" smooth="yes"/>
      <point x="368" y="76"/>
      <point x="282" y="169"/>
      <point x="282" y="280" type="curve" smooth="yes"/>
      <point x="282" y="390"/>
      <point x="368" y="483"/>
      <point x="471" y="483" type="curve" smooth="yes"/>
      <point x="522" y="483"/>
      <point x="569" y="460"/>
      <point x="603" y="423" type="curve"/>
      <point x="655" y="474" type="line"/>
      <point x="606" y="521"/>
      <point x="541" y="550"/>
      <point x="471" y="550" type="curve" smooth="yes"/>
      <point x="326" y="550"/>
      <point x="203" y="427"/>
      <point x="203" y="280" type="curve" smooth="yes"/>
      <point x="203" y="133"/>
      <point x="326" y="9"/>
    </contour>
  </outline>
</glyph>
<glyph name="registered" format="1">
  <advance width="661"/>
  <unicode hex="00AE"/>
  <outline>
    <contour>
      <point x="331" y="184" type="curve" smooth="yes"/>
      <point x="466" y="184"/>
      <point x="577" y="295"/>
      <point x="577" y="430" type="curve" smooth="yes"/>
      <point x="577" y="565"/>
      <point x="466" y="675"/>
      <point x="331" y="675" type="curve" smooth="yes"/>
      <point x="195" y="675"/>
      <point x="84" y="565"/>
      <point x="84" y="430" type="curve" smooth="yes"/>
      <point x="84" y="295"/>
      <point x="195" y="184"/>
    </contour>
    <contour>
      <point x="331" y="220" type="curve" smooth="yes"/>
      <point x="215" y="220"/>
      <point x="120" y="314"/>
      <point x="120" y="430" type="curve" smooth="yes"/>
      <point x="120" y="545"/>
      <point x="215" y="639"/>
      <point x="331" y="639" type="curve" smooth="yes"/>
      <point x="447" y="639"/>
      <point x="541" y="545"/>
      <point x="541" y="430" type="curve" smooth="yes"/>
      <point x="541" y="314"/>
      <point x="447" y="220"/>
    </contour>
    <contour>
      <point x="394" y="279" type="line"/>
      <point x="469" y="279" type="line"/>
      <point x="386" y="397" type="line"/>
      <point x="311" y="397" type="line"/>
    </contour>
    <contour>
      <point x="284" y="444" type="line"/>
      <point x="284" y="505" type="line"/>
      <point x="342" y="505" type="line" smooth="yes"/>
      <point x="367" y="505"/>
      <point x="385" y="493"/>
      <point x="385" y="475" type="curve" smooth="yes"/>
      <point x="385" y="457"/>
      <point x="367" y="444"/>
      <point x="342" y="444" type="curve" smooth="yes"/>
    </contour>
    <contour>
      <point x="209" y="279" type="line"/>
      <point x="284" y="279" type="line"/>
      <point x="284" y="370" type="line"/>
      <point x="350" y="370" type="line" smooth="yes"/>
      <point x="418" y="370"/>
      <point x="464" y="413"/>
      <point x="464" y="475" type="curve" smooth="yes"/>
      <point x="464" y="537"/>
      <point x="418" y="579"/>
      <point x="350" y="579" type="curve" smooth="yes"/>
      <point x="209" y="579" type="line"/>
    </contour>
  </outline>
</glyph>
<glyph name="macron" format="1">
  <advance width="482"/>
  <unicode hex="00AF"/>
  <outline>
    <contour>
      <point x="86" y="594" type="line"/>
      <point x="396" y="594" type="line"/>
      <point x="396" y="649" type="line"/>
      <point x="86" y="649" type="line"/>
    </contour>
    <contour>
      <point x="241" y="517" type="move" name="_top"/>
    </contour>
    <contour>
      <point x="241" y="704" type="move" name="top"/>
    </contour>
  </outline>
</glyph>
<glyph name="paragraph" format="1">
  <advance width="664"/>
  <unicode hex="00B6"/>
  <outline>
    <contour>
      <point x="292" y="-50" type="line"/>
      <point x="354" y="-50" type="line"/>
      <point x="354" y="629" type="line"/>
      <point x="471" y="629" type="line"/>
      <point x="471" y="-50" type="line"/>
      <point x="533" y="-50" type="line"/>
      <point x="533" y="687" type="line"/>
      <point x="279" y="687" type="line"/>
      <point x="152" y="687"/>
      <point x="61" y="607"/>
      <point x="61" y="491" type="curve" smooth="yes"/>
      <point x="61" y="377"/>
      <point x="153" y="297"/>
      <point x="292" y="297" type="curve"/>
    </contour>
  </outline>
</glyph>
<glyph name="periodcentered" format="1">
  <advance width="321"/>
  <unicode hex="00B7"/>
  <outline>
    <contour>
      <point x="161" y="221" type="curve" smooth="yes"/>
      <point x="189" y="221"/>
      <point x="212" y="243"/>
      <point x="212" y="273" type="curve" smooth="yes"/>
      <point x="212" y="302"/>
      <point x="189" y="324"/>
      <point x="161" y="324" type="curve" smooth="yes"/>
      <point x="132" y="324"/>
      <point x="109" y="302"/>
      <point x="109" y="273" type="curve" smooth="yes"/>
      <point x="109" y="243"/>
      <point x="132" y="221"/>
    </contour>
  </outline>
</glyph>
<glyph name="ae" format="1">
  <advance width="946"/>
  <unicode hex="00E6"/>
  <outline>
    <contour>
      <point x="235" y="-12" type="curve" smooth="yes"/>
      <point x="369" y="-12"/>
      <point x="482" y="91"/>
      <point x="482" y="213" type="curve"/>
      <point x="482" y="315" type="line" smooth="yes"/>
      <point x="482" y="440"/>
      <point x="413" y="529"/>
      <point x="272" y="529" type="curve" smooth="yes"/>
      <point x="222" y="529"/>
      <point x="160" y="516"/>
      <point x="86" y="479" type="curve"/>
      <point x="116" y="418" type="line"/>
      <point x="163" y="442"/>
      <point x="215" y="465"/>
      <point x="267" y="465" type="curve" smooth="yes"/>
      <point x="379" y="465"/>
      <point x="407" y="385"/>
      <point x="407" y="315" type="curve" smooth="yes"/>
      <point x="407" y="203" type="line"/>
      <point x="407" y="122"/>
      <point x="334" y="54"/>
      <point x="248" y="54" type="curve" smooth="yes"/>
      <point x="161" y="54"/>
      <point x="109" y="92"/>
      <point x="109" y="156" type="curve" smooth="yes"/>
      <point x="109" y="218"/>
      <point x="174" y="262"/>
      <point x="251" y="262" type="curve" smooth="yes"/>
      <point x="321" y="262"/>
      <point x="385" y="250"/>
      <point x="440" y="230" type="curve"/>
      <point x="440" y="284" type="line"/>
      <point x="379" y="308"/>
      <point x="307" y="325"/>
      <point x="239" y="325" type="curve" smooth="yes"/>
      <point x="128" y="325"/>
      <point x="36" y="256"/>
      <point x="36" y="153" type="curve" smooth="yes"/>
      <point x="36" y="49"/>
      <point x="110" y="-12"/>
    </contour>
    <component base="e" xOffset="363"/>
  </outline>
</glyph>
<glyph name="eth" format="1">
  <advance width="601"/>
  <unicode hex="00F0"/>
  <outline>
    <contour>
      <point x="298" y="56" type="curve" smooth="yes"/>
      <point x="194" y="56"/>
      <point x="121" y="135"/>
      <point x="121" y="247" type="curve" smooth="yes"/>
      <point x="121" y="355"/>
      <point x="193" y="432"/>
      <point x="295" y="432" type="curve" smooth="yes"/>
      <point x="403" y="432"/>
      <point x="471" y="348"/>
      <point x="471" y="245" type="curve" smooth="yes"/>
      <point x="471" y="134"/>
      <point x="399" y="56"/>
    </contour>
    <contour>
      <point x="282" y="609"/>
      <point x="390" y="519"/>
      <point x="443" y="417" type="curve"/>
      <point x="400" y="468"/>
      <point x="346" y="498"/>
      <point x="276" y="498" type="curve" smooth="yes"/>
      <point x="140" y="498"/>
      <point x="43" y="394"/>
      <point x="43" y="248" type="curve" smooth="yes"/>
      <point x="43" y="96"/>
      <point x="149" y="-12"/>
      <point x="298" y="-12" type="curve" smooth="yes"/>
      <point x="446" y="-12"/>
      <point x="550" y="104"/>
      <point x="550" y="269" type="curve" smooth="yes"/>
      <point x="550" y="441"/>
      <point x="444" y="562"/>
      <point x="245" y="716" type="curve"/>
      <point x="169" y="685" type="line"/>
    </contour>
    <contour>
      <point x="186" y="525" type="line"/>
      <point x="444" y="640" type="line"/>
      <point x="417" y="702" type="line"/>
      <point x="159" y="587" type="line"/>
    </contour>
  </outline>
</glyph>
<glyph name="Lslash" format="1">
  <advance width="619"/>
  <unicode hex="0141"/>
  <outline>
    <contour>
      <point x="32" y="234" type="line"/>
      <point x="331" y="388" type="line"/>
      <point x="331" y="463" type="line"/>
      <point x="32" y="309" type="line"/>
    </contour>
    <component base="L" xOffset="32"/>
  </outline>
</glyph>
<glyph name="lslash" format="1">
  <advance width="295"/>
  <unicode hex="0142"/>
  <outline>
    <contour>
      <point x="28" y="234" type="line"/>
      <point x="261" y="354" type="line"/>
      <point x="261" y="429" type="line"/>
      <point x="28" y="309" type="line"/>
    </contour>
    <component base="l" xOffset="26"/>
  </outline>
</glyph>
<glyph name="jdotless" format="1">
  <advance width="239"/>
  <unicode hex="0237"/>
  <outline>
    <contour>
      <point x="31" y="-178" type="curve" smooth="yes"/>
      <point x="105" y="-178"/>
      <point x="157" y="-123"/>
      <point x="157" y="-46" type="curve" smooth="yes"/>
      <point x="157" y="517" type="line"/>
      <point x="82" y="517" type="line"/>
      <point x="82" y="-46" type="line" smooth="yes"/>
      <point x="82" y="-84"/>
      <point x="59" y="-111"/>
      <point x="26" y="-111" type="curve" smooth="yes"/>
      <point x="5" y="-111"/>
      <point x="-22" y="-106"/>
      <point x="-38" y="-100" type="curve"/>
      <point x="-50" y="-162" type="line"/>
      <point x="-30" y="-171"/>
      <point x="3" y="-178"/>
    </contour>
    <contour>
      <point x="120" y="517" type="move" name="top"/>
    </contour>
  </outline>
</glyph>
<glyph name="breve" format="1">
  <advance width="401"/>
  <unicode hex="02D8"/>
  <outline>
    <contour>
      <point x="199" y="589" type="curve" smooth="yes"/>
      <point x="252" y="589"/>
      <point x="305" y="609"/>
      <point x="345" y="649" type="curve"/>
      <point x="298" y="696" type="line"/>
      <point x="271" y="670"/>
      <point x="234" y="654"/>
      <point x="199" y="654" type="curve" smooth="yes"/>
      <point x="164" y="654"/>
      <point x="127" y="670"/>
      <point x="100" y="696" type="curve"/>
      <point x="53" y="649" type="line"/>
      <point x="94" y="609"/>
      <point x="146" y="589"/>
    </contour>
    <contour>
      <point x="199" y="517" type="move" name="_top"/>
    </contour>
    <contour>
      <point x="199" y="704" type="move" name="top"/>
    </contour>
  </outline>
</glyph>
<glyph name="ogonek" format="1">
  <advance width="294"/>
  <unicode hex="02DB"/>
  <outline>
    <contour>
      <point x="176" y="-173" type="curve" smooth="yes"/>
      <point x="208" y="-173"/>
      <point x="237" y="-163"/>
      <point x="260" y="-144" type="curve"/>
      <point x="228" y="-95" type="line"/>
      <point x="218" y="-106"/>
      <point x="202" y="-114"/>
      <point x="181" y="-114" type="curve" smooth="yes"/>
      <point x="144" y="-114"/>
      <point x="123" y="-92"/>
      <point x="123" y="-57" type="curve" smooth="yes"/>
      <point x="123" y="-24"/>
      <point x="147" y="0"/>
      <point x="181" y="0" type="curve"/>
      <point x="120" y="19" type="line"/>
      <point x="91" y="7"/>
      <point x="67" y="-27"/>
      <point x="67" y="-66" type="curve" smooth="yes"/>
      <point x="67" y="-133"/>
      <point x="112" y="-173"/>
    </contour>
    <contour>
      <point x="181" y="0" type="move" name="_bottom"/>
    </contour>
  </outline>
</glyph>
<glyph name="bullet" format="1">
  <advance width="430"/>
  <unicode hex="2022"/>
  <outline>
    <contour>
      <point x="215" y="178" type="curve" smooth="yes"/>
      <point x="280" y="178"/>
      <point x="334" y="232"/>
      <point x="334" y="298" type="curve" smooth="yes"/>
      <point x="334" y="363"/>
      <point x="280" y="417"/>
      <point x="215" y="417" type="curve" smooth="yes"/>
      <point x="149" y="417"/>
      <point x="95" y="363"/>
      <point x="95" y="298" type="curve" smooth="yes"/>
      <point x="95" y="232"/>
      <point x="149" y="178"/>
    </contour>
  </outline>
</glyph>
<glyph name="guilsinglright" format="1">
  <advance width="314"/>
  <unicode hex="203A"/>
  <outline>
    <contour>
      <point x="119" y="52" type="line"/>
      <point x="280" y="251" type="line"/>
      <point x="119" y="448" type="line"/>
      <point x="44" y="432" type="line"/>
      <point x="191" y="252" type="line"/>
      <point x="44" y="69" type="line"/>
    </contour>
  </outline>
</glyph>
<glyph name="euro" format="1">
  <advance width="825"/>
  <unicode hex="20AC"/>
  <outline>
    <contour>
      <point x="80" y="236" type="line"/>
      <point x="576" y="236" type="line"/>
      <point x="576" y="303" type="line"/>
      <point x="80" y="303" type="line"/>
    </contour>
    <contour>
      <point x="80" y="403" type="line"/>
      <point x="576" y="403" type="line"/>
      <point x="576" y="470" type="line"/>
      <point x="80" y="470" type="line"/>
    </contour>
    <component base="C" xOffset="104"/>
  </outline>
</glyph>
<glyph name="ae_upper" format="1">
  <advance width="489"/>
  <outline>
    <contour>
      <point x="4" y="0" type="line"/>
      <point x="94" y="0" type="line"/>
      <point x="491" y="687" type="line"/>
      <point x="400" y="687" type="line"/>
    </contour>
    <contour>
      <point x="150" y="156" type="line"/>
      <point x="469" y="156" type="line"/>
      <point x="469" y="230" type="line"/>
      <point x="150" y="230" type="line"/>
    </contour>
    <contour>
      <point x="448" y="687" type="move" name="_ae_upper"/>
    </contour>
  </outline>
</glyph>
<glyph name="k_arms" format="1">
  <advance width="420"/>
  <outline>
    <contour>
      <point x="305" y="0" type="line"/>
      <point x="399" y="0" type="line"/>
      <point x="179" y="280" type="line"/>
      <point x="412" y="517" type="line"/>
      <point x="316" y="517" type="line"/>
      <point x="22" y="220" type="line"/>
      <point x="22" y="126" type="line"/>
      <point x="126" y="229" type="line"/>
    </contour>
    <contour>
      <point x="22" y="126" type="move" name="k_arms"/>
    </contour>
  </outline>
</glyph>
<glyph name="lowercase_loop_reverse" format="1">
  <advance width="555"/>
  <outline>
    <contour>
      <point x="282" y="-12" type="curve" smooth="yes"/>
      <point x="419" y="-12"/>
      <point x="509" y="100"/>
      <point x="509" y="259" type="curve" smooth="yes"/>
      <point x="509" y="417"/>
      <point x="419" y="529"/>
      <point x="282" y="529" type="curve" smooth="yes"/>
      <point x="146" y="529"/>
      <point x="44" y="417"/>
      <point x="44" y="259" type="curve" smooth="yes"/>
      <point x="44" y="100"/>
      <point x="146" y="-12"/>
    </contour>
    <contour>
      <point x="296" y="55" type="curve" smooth="yes"/>
      <point x="195" y="55"/>
      <point x="123" y="140"/>
      <point x="123" y="259" type="curve" smooth="yes"/>
      <point x="123" y="378"/>
      <point x="195" y="462"/>
      <point x="296" y="462" type="curve" smooth="yes"/>
      <point x="398" y="462"/>
      <point x="470" y="378"/>
      <point x="470" y="259" type="curve" smooth="yes"/>
      <point x="470" y="140"/>
      <point x="398" y="55"/>
    </contour>
    <contour>
      <point x="470" y="259" type="move" name="_loop_left"/>
    </contour>
  </outline>
</glyph>
<glyph name="lowercase_m_shoulder" format="1">
  <advance width="444"/>
  <outline>
    <contour>
      <point x="295" y="0" type="line"/>
      <point x="370" y="0" type="line"/>
      <point x="370" y="329" type="line" smooth="yes"/>
      <point x="370" y="446"/>
      <point x="294" y="529"/>
      <point x="186" y="529" type="curve" smooth="yes"/>
      <point x="94" y="529"/>
      <point x="25" y="467"/>
      <point x="20" y="379" type="curve"/>
      <point x="36" y="329" type="line"/>
      <point x="36" y="407"/>
      <point x="94" y="462"/>
      <point x="176" y="462" type="curve" smooth="yes"/>
      <point x="246" y="462"/>
      <point x="295" y="403"/>
      <point x="295" y="319" type="curve" smooth="yes"/>
    </contour>
    <contour>
      <point x="36" y="329" type="move" name="_shoulder"/>
    </contour>
    <contour>
      <point x="370" y="329" type="move" name="shoulder"/>
    </contour>
  </outline>
</glyph>
